<?xml version="1.0" standalone="no"?>
<!DOCTYPE svg PUBLIC "-//W3C//DTD SVG 20010904//EN"
 "http://www.w3.org/TR/2001/REC-SVG-20010904/DTD/svg10.dtd">
<svg version="1.0" xmlns="http://www.w3.org/2000/svg"
 width="960.000000pt" height="960.000000pt" viewBox="0 0 960.000000 960.000000"
 preserveAspectRatio="xMidYMid meet">
<metadata>
Created by potrace 1.14, written by Peter Selinger 2001-2017
</metadata>
<g transform="translate(0.000000,960.000000) scale(0.100000,-0.100000)"
fill="#000000" stroke="none">
<path d="M2400 8800 l0 -400 400 0 400 0 0 -400 0 -400 -400 0 -400 0 0 -400
0 -400 -400 0 -400 0 0 -1200 0 -1200 -400 0 -400 0 0 800 0 800 -400 0 -400
0 0 -1200 0 -1200 800 0 800 0 0 -800 0 -800 800 0 800 0 0 -400 0 -400 -800
0 -800 0 0 -400 0 -400 800 0 800 0 0 400 0 400 400 0 400 0 0 400 0 400 800
0 800 0 0 -400 0 -400 400 0 400 0 0 -400 0 -400 800 0 800 0 0 400 0 400
-800 0 -800 0 0 400 0 400 800 0 800 0 0 800 0 800 800 0 800 0 0 1200 0 1200
-400 0 -400 0 0 -800 0 -800 -400 0 -400 0 0 1200 0 1200 -400 0 -400 0 0 400
0 400 -400 0 -400 0 0 400 0 400 400 0 400 0 0 400 0 400 -400 0 -400 0 0
-400 0 -400 -400 0 -400 0 0 -400 0 -400 -800 0 -800 0 0 400 0 400 -400 0
-400 0 0 400 0 400 -400 0 -400 0 0 -400z m1600 -3600 l0 -800 -400 0 -400 0
0 800 0 800 400 0 400 0 0 -800z m2400 0 l0 -800 -400 0 -400 0 0 800 0 800
400 0 400 0 0 -800z"/>
</g>
</svg>
